PathFileType	4	(X/Y/Z)	./resultDataOpenSim/trcMotMarkerGrf/sub10/qtm-15-07.trc
DataRate	CameraRate	NumFrames	NumMarkers	Units	OrigDataRate	OrigDataStartFrame	OrigNumFrames
250.000000	250.000000	5	24	m	250.000000	261	520
Frame#	Time	L.Toe.Tip			R.Toe.Tip			L.Ankle.Lat			R.Ankle.Lat			L.Ankle.Med			R.Ankle.Med			L.Heel			R.Heel			L.Knee.Lat			R.Knee.Lat			L.Knee.Med			R.Knee.Med			L.Thigh.Upper			R.Thigh.Upper			L.ASIS			R.ASIS			V.Sacral			L.Acromium			R.Acromium			C7			L.Elbow			R.Elbow			L.Wrist.Lat			R.Wrist.Lat
		X1	Y1	Z1	X2	Y2	Z2	X3	Y3	Z3	X4	Y4	Z4	X5	Y5	Z5	X6	Y6	Z6	X7	Y7	Z7	X8	Y8	Z8	X9	Y9	Z9	X10	Y10	Z10	X11	Y11	Z11	X12	Y12	Z12	X13	Y13	Z13	X14	Y14	Z14	X15	Y15	Z15	X16	Y16	Z16	X17	Y17	Z17	X18	Y18	Z18	X19	Y19	Z19	X20	Y20	Z20	X21	Y21	Z21	X22	Y22	Z22	X23	Y23	Z23	X24	Y24	Z24

261	1.04	-0.053834803	-0.056894308	-0.1428039	0.49525473	0.1418465	-0.041916109	-0.17832352	-0.018148995	-0.17661336	0.35627064	0.15367455	-0.012457039	-0.16163985	0.0075491744	-0.096704273	0.37969619	0.18014323	-0.095949515	-0.25022638	-0.026817276	-0.13443673	0.30949182	0.12433075	-0.061910438	0.023353273	0.30802867	-0.2335566	0.36056046	0.54314172	-0.003800462	0.036465276	0.29117139	-0.11325567	0.36593808	0.56076087	-0.13308078	-0.0090001797	0.69622816	-0.30997903	0.043377701	0.73797329	0.078506708	0.059329723	0.79621383	-0.25839141	0.094694417	0.8036613	-0.011072713	-0.12290058	0.84833119	-0.095614655	0.1303639	1.2867511	-0.28661169	0.083997245	1.3088785	-0.010740072	0.036098751	1.3119762	-0.16426217	0.1499689	1.0789805	-0.5529452	-0.073754209	1.1780652	0.25375718	0.37777092	1.1056316	-0.65930135	0.020669196	1.2482495	0.47745323
262	1.044	-0.053800202	-0.056906215	-0.1428277	0.51332729	0.14015965	-0.047387273	-0.17808854	-0.017644778	-0.17667291	0.37416353	0.15085534	-0.016689028	-0.16123311	0.0080856602	-0.096764116	0.39697353	0.1787158	-0.099758588	-0.2501165	-0.02604684	-0.13448695	0.32754223	0.12187699	-0.066346504	0.023979112	0.30816592	-0.23377917	0.36639836	0.54124107	-0.004693302	0.037446699	0.29099288	-0.11353039	0.37151029	0.55898798	-0.1336091	-0.0053954382	0.69690709	-0.30958687	0.050312322	0.74024451	0.078713417	0.063854401	0.79744104	-0.25913952	0.10147245	0.80491218	-0.011616197	-0.11665354	0.84910369	-0.095650098	0.13637988	1.2883575	-0.28657954	0.089913045	1.3103823	-0.011588881	0.042417237	1.313171	-0.16451096	0.15727633	1.0847189	-0.55542001	-0.069634738	1.1838286	0.25309385	0.38512956	1.1135273	-0.66079664	0.022403974	1.2575228	0.47708358
263	1.048	-0.053774242	-0.056919572	-0.14284396	0.53103974	0.13843639	-0.052841353	-0.17784853	-0.017134879	-0.17673995	0.3916937	0.14821585	-0.020882655	-0.16082077	0.0086392667	-0.096819391	0.41391459	0.17739085	-0.10350937	-0.24999597	-0.025245672	-0.13454849	0.34523412	0.11968676	-0.070770919	0.024563343	0.30838406	-0.23396662	0.37214832	0.53912911	-0.0055354507	0.038288016	0.29090358	-0.11377747	0.37715241	0.55699863	-0.13415412	-0.0019774599	0.69745947	-0.30882474	0.057171602	0.742547	0.078821072	0.068512469	0.79863811	-0.25976699	0.10833128	0.80637552	-0.012125222	-0.11047133	0.84972407	-0.095924223	0.1423939	1.2900411	-0.28653601	0.09581363	1.3119421	-0.012425836	0.048758316	1.3144321	-0.16473814	0.16447941	1.0905053	-0.55780309	-0.065481325	1.1895748	0.25243153	0.39229218	1.1214311	-0.6622247	0.024192822	1.2666606	0.47652755
264	1.052	-0.053752108	-0.05692906	-0.14285424	0.54835876	0.13669587	-0.058237287	-0.17760118	-0.016611358	-0.17681518	0.40882004	0.14573296	-0.025006535	-0.16041514	0.0092086807	-0.09687737	0.43052723	0.17617612	-0.10717228	-0.24985462	-0.024401302	-0.13461752	0.36254781	0.11773134	-0.075173491	0.025115045	0.30867586	-0.23412217	0.37780051	0.5368221	-0.0063411968	0.039012341	0.29090437	-0.11399811	0.38280182	0.55481804	-0.13470505	0.001310923	0.69790717	-0.30776729	0.063932464	0.74483581	0.078804987	0.073285557	0.79978745	-0.26030107	0.11534084	0.80806829	-0.012591586	-0.10421528	0.85030391	-0.096229806	0.14839955	1.2917963	-0.28648672	0.10169734	1.3135599	-0.013245342	0.055126713	1.3157506	-0.16496541	0.17158657	1.0963067	-0.56010543	-0.061228337	1.1953592	0.25177342	0.39937483	1.1293472	-0.66357046	0.026049426	1.2756746	0.47580973
265	1.056	-0.053731732	-0.056931118	-0.1428615	0.5652595	0.13498337	-0.063534381	-0.17733992	-0.016063327	-0.17690687	0.42547163	0.14340675	-0.029019317	-0.16002558	0.0097885603	-0.096951441	0.44678463	0.17507577	-0.11070424	-0.24968253	-0.023498441	-0.13468725	0.3794111	0.11599014	-0.079466849	0.025618345	0.30904	-0.2342585	0.38334882	0.5343295	-0.0071222147	0.039640628	0.2910005	-0.11419104	0.38842645	0.55245748	-0.13525693	0.0046354064	0.69832041	-0.30663249	0.07058215	0.74708059	0.078647218	0.078165061	0.80087575	-0.26075122	0.12250692	0.80998367	-0.013031854	-0.097576082	0.85092176	-0.09650597	0.154395	1.2936174	-0.2864386	0.10756837	1.3152435	-0.014038084	0.061513625	1.3171326	-0.16519878	0.17859211	1.1020631	-0.56236057	-0.056869056	1.2011333	0.2511063	0.40643901	1.1372901	-0.6648336	0.027970041	1.2845908	0.47498011
